<?xml version="1.0" encoding="UTF-8"?>
<svg xmlns="http://www.w3.org/2000/svg" version="1.1" width="300" height="300" viewBox="0 0 300 300"><rect x="0" y="0" width="300" height="300" fill="#3f0b33"/><g transform="scale(14.286)"><g transform="translate(0,0)"><path fill-rule="evenodd" d="M9 0L9 2L8 2L8 3L9 3L9 4L10 4L10 5L11 5L11 4L12 4L12 7L11 7L11 6L10 6L10 7L9 7L9 6L8 6L8 8L4 8L4 9L3 9L3 8L0 8L0 9L2 9L2 11L1 11L1 13L7 13L7 12L3 12L3 10L5 10L5 11L7 11L7 10L9 10L9 11L8 11L8 12L9 12L9 13L8 13L8 17L9 17L9 18L8 18L8 21L9 21L9 20L11 20L11 17L12 17L12 16L13 16L13 17L14 17L14 18L15 18L15 16L14 16L14 15L19 15L19 14L18 14L18 13L20 13L20 16L19 16L19 18L20 18L20 19L19 19L19 21L21 21L21 20L20 20L20 19L21 19L21 18L20 18L20 17L21 17L21 9L20 9L20 10L19 10L19 8L18 8L18 9L17 9L17 10L16 10L16 9L15 9L15 8L13 8L13 4L12 4L12 3L13 3L13 2L12 2L12 1L13 1L13 0L11 0L11 1L10 1L10 0ZM10 2L10 4L11 4L11 2ZM10 7L10 8L11 8L11 7ZM12 8L12 9L9 9L9 10L11 10L11 11L9 11L9 12L11 12L11 13L12 13L12 15L13 15L13 13L14 13L14 14L15 14L15 13L16 13L16 10L14 10L14 9L13 9L13 8ZM5 9L5 10L7 10L7 9ZM12 10L12 11L13 11L13 10ZM14 11L14 13L15 13L15 11ZM17 11L17 12L19 12L19 11ZM12 12L12 13L13 13L13 12ZM10 15L10 16L9 16L9 17L10 17L10 16L11 16L11 15ZM17 16L17 17L16 17L16 19L17 19L17 21L18 21L18 16ZM9 18L9 19L10 19L10 18ZM12 18L12 19L13 19L13 18ZM14 19L14 21L15 21L15 19ZM12 20L12 21L13 21L13 20ZM0 0L0 7L7 7L7 0ZM1 1L1 6L6 6L6 1ZM2 2L2 5L5 5L5 2ZM14 0L14 7L21 7L21 0ZM15 1L15 6L20 6L20 1ZM16 2L16 5L19 5L19 2ZM0 14L0 21L7 21L7 14ZM1 15L1 20L6 20L6 15ZM2 16L2 19L5 19L5 16Z" fill="#315473"/></g></g></svg>
