<?xml version="1.0" encoding="UTF-8"?>
<svg xmlns="http://www.w3.org/2000/svg" version="1.1" width="300" height="300" viewBox="0 0 300 300"><rect x="0" y="0" width="300" height="300" fill="#3f0b33"/><g transform="scale(14.286)"><g transform="translate(0,0)"><path fill-rule="evenodd" d="M10 0L10 1L8 1L8 2L10 2L10 3L8 3L8 4L9 4L9 5L8 5L8 7L9 7L9 8L6 8L6 9L7 9L7 10L5 10L5 11L4 11L4 10L3 10L3 9L5 9L5 8L0 8L0 10L2 10L2 11L1 11L1 12L0 12L0 13L4 13L4 12L6 12L6 13L7 13L7 12L6 12L6 11L8 11L8 15L9 15L9 16L8 16L8 21L11 21L11 20L12 20L12 21L13 21L13 20L15 20L15 21L16 21L16 20L15 20L15 19L16 19L16 18L17 18L17 20L18 20L18 21L20 21L20 20L19 20L19 18L17 18L17 17L20 17L20 16L21 16L21 15L19 15L19 14L21 14L21 13L20 13L20 12L21 12L21 11L20 11L20 8L19 8L19 9L18 9L18 8L17 8L17 10L19 10L19 11L17 11L17 12L18 12L18 13L15 13L15 14L17 14L17 15L16 15L16 16L17 16L17 17L16 17L16 18L15 18L15 17L14 17L14 16L13 16L13 17L12 17L12 16L11 16L11 18L12 18L12 19L10 19L10 20L9 20L9 16L10 16L10 15L12 15L12 14L13 14L13 15L14 15L14 14L13 14L13 12L16 12L16 8L15 8L15 9L14 9L14 8L13 8L13 9L12 9L12 8L11 8L11 9L10 9L10 11L11 11L11 12L12 12L12 14L10 14L10 15L9 15L9 13L10 13L10 12L9 12L9 11L8 11L8 9L9 9L9 8L10 8L10 7L11 7L11 6L12 6L12 7L13 7L13 6L12 6L12 5L13 5L13 0ZM11 1L11 2L12 2L12 1ZM10 3L10 5L9 5L9 7L10 7L10 6L11 6L11 5L12 5L12 3ZM11 10L11 11L12 11L12 10ZM13 10L13 11L14 11L14 10ZM3 11L3 12L4 12L4 11ZM18 13L18 14L19 14L19 13ZM13 18L13 19L14 19L14 18ZM0 0L0 7L7 7L7 0ZM1 1L1 6L6 6L6 1ZM2 2L2 5L5 5L5 2ZM14 0L14 7L21 7L21 0ZM15 1L15 6L20 6L20 1ZM16 2L16 5L19 5L19 2ZM0 14L0 21L7 21L7 14ZM1 15L1 20L6 20L6 15ZM2 16L2 19L5 19L5 16Z" fill="#315473"/></g></g></svg>
