<?xml version="1.0" encoding="UTF-8"?>
<svg xmlns="http://www.w3.org/2000/svg" version="1.1" width="300" height="300" viewBox="0 0 300 300"><rect x="0" y="0" width="300" height="300" fill="#3f0b33"/><g transform="scale(14.286)"><g transform="translate(0,0)"><path fill-rule="evenodd" d="M9 0L9 2L8 2L8 3L9 3L9 4L10 4L10 5L11 5L11 4L12 4L12 7L11 7L11 6L10 6L10 7L9 7L9 6L8 6L8 8L4 8L4 10L3 10L3 11L4 11L4 10L6 10L6 11L7 11L7 10L6 10L6 9L8 9L8 12L2 12L2 13L8 13L8 17L9 17L9 18L8 18L8 21L9 21L9 20L10 20L10 19L11 19L11 18L10 18L10 16L9 16L9 15L11 15L11 17L12 17L12 16L13 16L13 17L14 17L14 18L15 18L15 19L14 19L14 21L18 21L18 20L17 20L17 19L18 19L18 18L15 18L15 16L17 16L17 12L16 12L16 11L17 11L17 10L16 10L16 9L15 9L15 8L13 8L13 4L12 4L12 3L13 3L13 2L12 2L12 1L13 1L13 0L11 0L11 1L10 1L10 0ZM10 2L10 4L11 4L11 2ZM10 7L10 8L11 8L11 7ZM0 8L0 9L3 9L3 8ZM12 8L12 9L9 9L9 11L10 11L10 12L11 12L11 13L12 13L12 15L13 15L13 13L14 13L14 14L16 14L16 12L15 12L15 13L14 13L14 11L16 11L16 10L14 10L14 9L13 9L13 8ZM18 8L18 9L19 9L19 8ZM20 9L20 11L19 11L19 10L18 10L18 11L19 11L19 12L20 12L20 11L21 11L21 9ZM0 10L0 11L1 11L1 10ZM12 10L12 11L13 11L13 10ZM8 12L8 13L9 13L9 12ZM12 12L12 13L13 13L13 12ZM18 13L18 15L19 15L19 13ZM20 13L20 16L18 16L18 17L19 17L19 18L20 18L20 19L19 19L19 21L21 21L21 20L20 20L20 19L21 19L21 18L20 18L20 17L21 17L21 13ZM14 15L14 16L15 16L15 15ZM12 18L12 19L13 19L13 18ZM15 19L15 20L16 20L16 19ZM12 20L12 21L13 21L13 20ZM0 0L0 7L7 7L7 0ZM1 1L1 6L6 6L6 1ZM2 2L2 5L5 5L5 2ZM14 0L14 7L21 7L21 0ZM15 1L15 6L20 6L20 1ZM16 2L16 5L19 5L19 2ZM0 14L0 21L7 21L7 14ZM1 15L1 20L6 20L6 15ZM2 16L2 19L5 19L5 16Z" fill="#315473"/></g></g></svg>
