<?xml version="1.0" encoding="UTF-8"?>
<svg xmlns="http://www.w3.org/2000/svg" version="1.1" width="300" height="300" viewBox="0 0 300 300"><rect x="0" y="0" width="300" height="300" fill="#3f0b33"/><g transform="scale(14.286)"><g transform="translate(0,0)"><path fill-rule="evenodd" d="M8 0L8 1L9 1L9 0ZM10 0L10 2L8 2L8 5L9 5L9 6L8 6L8 7L9 7L9 6L10 6L10 7L11 7L11 8L8 8L8 9L7 9L7 8L6 8L6 9L5 9L5 10L4 10L4 8L0 8L0 10L1 10L1 9L2 9L2 10L3 10L3 11L0 11L0 13L3 13L3 11L4 11L4 13L5 13L5 12L6 12L6 13L7 13L7 12L6 12L6 11L7 11L7 10L10 10L10 9L11 9L11 11L10 11L10 13L11 13L11 15L10 15L10 14L9 14L9 12L8 12L8 14L9 14L9 17L8 17L8 21L10 21L10 20L11 20L11 18L12 18L12 19L13 19L13 21L14 21L14 19L15 19L15 20L17 20L17 19L15 19L15 16L12 16L12 17L11 17L11 15L13 15L13 14L12 14L12 13L13 13L13 12L12 12L12 10L16 10L16 9L17 9L17 11L16 11L16 12L15 12L15 11L14 11L14 12L15 12L15 13L14 13L14 14L15 14L15 15L17 15L17 16L19 16L19 18L20 18L20 17L21 17L21 15L18 15L18 14L16 14L16 13L17 13L17 12L18 12L18 13L19 13L19 12L18 12L18 11L21 11L21 10L20 10L20 9L21 9L21 8L20 8L20 9L19 9L19 8L16 8L16 9L14 9L14 8L13 8L13 5L12 5L12 4L13 4L13 3L12 3L12 1L13 1L13 0ZM10 2L10 4L9 4L9 5L11 5L11 4L12 4L12 3L11 3L11 2ZM11 6L11 7L12 7L12 6ZM6 9L6 10L5 10L5 11L6 11L6 10L7 10L7 9ZM11 12L11 13L12 13L12 12ZM12 17L12 18L13 18L13 19L14 19L14 17ZM17 17L17 18L18 18L18 17ZM9 19L9 20L10 20L10 19ZM20 19L20 20L21 20L21 19ZM18 20L18 21L19 21L19 20ZM0 0L0 7L7 7L7 0ZM1 1L1 6L6 6L6 1ZM2 2L2 5L5 5L5 2ZM14 0L14 7L21 7L21 0ZM15 1L15 6L20 6L20 1ZM16 2L16 5L19 5L19 2ZM0 14L0 21L7 21L7 14ZM1 15L1 20L6 20L6 15ZM2 16L2 19L5 19L5 16Z" fill="#315473"/></g></g></svg>
