<?xml version="1.0" encoding="UTF-8"?>
<svg xmlns="http://www.w3.org/2000/svg" version="1.1" width="300" height="300" viewBox="0 0 300 300"><rect x="0" y="0" width="300" height="300" fill="#3f0b33"/><g transform="scale(14.286)"><g transform="translate(0,0)"><path fill-rule="evenodd" d="M8 0L8 1L9 1L9 0ZM12 0L12 2L11 2L11 1L10 1L10 2L11 2L11 3L10 3L10 4L9 4L9 6L8 6L8 8L9 8L9 6L10 6L10 7L11 7L11 5L13 5L13 0ZM11 3L11 4L10 4L10 5L11 5L11 4L12 4L12 3ZM12 6L12 7L13 7L13 6ZM0 8L0 9L1 9L1 10L2 10L2 11L3 11L3 13L4 13L4 12L5 12L5 13L7 13L7 12L5 12L5 11L8 11L8 12L9 12L9 11L10 11L10 13L8 13L8 14L11 14L11 15L9 15L9 16L8 16L8 18L9 18L9 19L8 19L8 21L9 21L9 20L12 20L12 21L14 21L14 20L13 20L13 19L14 19L14 18L15 18L15 15L14 15L14 16L13 16L13 17L12 17L12 18L11 18L11 17L10 17L10 16L11 16L11 15L12 15L12 14L15 14L15 11L16 11L16 12L17 12L17 13L19 13L19 14L21 14L21 12L20 12L20 11L21 11L21 10L20 10L20 9L21 9L21 8L20 8L20 9L16 9L16 10L15 10L15 11L13 11L13 10L14 10L14 9L15 9L15 8L14 8L14 9L12 9L12 8L10 8L10 9L7 9L7 8L6 8L6 9L7 9L7 10L5 10L5 8L3 8L3 9L4 9L4 10L2 10L2 8ZM10 9L10 11L11 11L11 12L12 12L12 11L11 11L11 9ZM4 10L4 11L5 11L5 10ZM8 10L8 11L9 11L9 10ZM16 10L16 11L17 11L17 12L18 12L18 10ZM19 10L19 11L20 11L20 10ZM0 12L0 13L1 13L1 12ZM19 12L19 13L20 13L20 12ZM11 13L11 14L12 14L12 13ZM16 14L16 15L17 15L17 14ZM18 15L18 16L19 16L19 17L18 17L18 18L16 18L16 19L17 19L17 20L21 20L21 18L19 18L19 17L21 17L21 16L20 16L20 15ZM10 18L10 19L11 19L11 18ZM15 20L15 21L16 21L16 20ZM0 0L0 7L7 7L7 0ZM1 1L1 6L6 6L6 1ZM2 2L2 5L5 5L5 2ZM14 0L14 7L21 7L21 0ZM15 1L15 6L20 6L20 1ZM16 2L16 5L19 5L19 2ZM0 14L0 21L7 21L7 14ZM1 15L1 20L6 20L6 15ZM2 16L2 19L5 19L5 16Z" fill="#315473"/></g></g></svg>
