<?xml version="1.0" encoding="UTF-8"?>
<svg xmlns="http://www.w3.org/2000/svg" version="1.1" width="300" height="300" viewBox="0 0 300 300"><rect x="0" y="0" width="300" height="300" fill="#3f0b33"/><g transform="scale(14.286)"><g transform="translate(0,0)"><path fill-rule="evenodd" d="M12 0L12 2L11 2L11 1L10 1L10 4L9 4L9 3L8 3L8 5L9 5L9 6L8 6L8 7L9 7L9 6L10 6L10 7L11 7L11 6L12 6L12 7L13 7L13 6L12 6L12 5L13 5L13 0ZM11 3L11 4L10 4L10 6L11 6L11 5L12 5L12 3ZM0 8L0 10L1 10L1 11L3 11L3 13L4 13L4 12L6 12L6 13L8 13L8 16L10 16L10 17L9 17L9 18L10 18L10 19L8 19L8 21L9 21L9 20L10 20L10 21L11 21L11 20L12 20L12 21L13 21L13 20L15 20L15 21L16 21L16 20L17 20L17 21L18 21L18 20L19 20L19 21L20 21L20 20L19 20L19 19L21 19L21 18L19 18L19 17L20 17L20 14L19 14L19 13L18 13L18 12L19 12L19 11L18 11L18 10L20 10L20 9L18 9L18 8L16 8L16 10L14 10L14 9L12 9L12 8L11 8L11 10L12 10L12 11L7 11L7 10L5 10L5 9L8 9L8 10L9 10L9 9L8 9L8 8L5 8L5 9L3 9L3 10L1 10L1 9L2 9L2 8ZM17 9L17 10L16 10L16 11L17 11L17 10L18 10L18 9ZM4 10L4 11L5 11L5 10ZM13 10L13 11L14 11L14 10ZM6 11L6 12L7 12L7 11ZM20 11L20 13L21 13L21 11ZM1 12L1 13L2 13L2 12ZM9 12L9 14L10 14L10 16L12 16L12 17L13 17L13 16L14 16L14 17L17 17L17 20L18 20L18 17L17 17L17 16L14 16L14 15L17 15L17 14L18 14L18 13L17 13L17 14L15 14L15 13L16 13L16 12L15 12L15 13L13 13L13 14L12 14L12 13L11 13L11 12ZM11 14L11 15L12 15L12 14ZM13 14L13 15L14 15L14 14ZM10 17L10 18L11 18L11 17ZM14 18L14 19L16 19L16 18ZM10 19L10 20L11 20L11 19ZM0 0L0 7L7 7L7 0ZM1 1L1 6L6 6L6 1ZM2 2L2 5L5 5L5 2ZM14 0L14 7L21 7L21 0ZM15 1L15 6L20 6L20 1ZM16 2L16 5L19 5L19 2ZM0 14L0 21L7 21L7 14ZM1 15L1 20L6 20L6 15ZM2 16L2 19L5 19L5 16Z" fill="#315473"/></g></g></svg>
