<?xml version="1.0" encoding="UTF-8"?>
<svg xmlns="http://www.w3.org/2000/svg" version="1.1" width="300" height="300" viewBox="0 0 300 300"><rect x="0" y="0" width="300" height="300" fill="#3f0b33"/><g transform="scale(14.286)"><g transform="translate(0,0)"><path fill-rule="evenodd" d="M8 0L8 4L12 4L12 5L11 5L11 6L10 6L10 5L8 5L8 7L9 7L9 9L7 9L7 8L4 8L4 9L2 9L2 8L0 8L0 10L3 10L3 11L5 11L5 10L4 10L4 9L7 9L7 10L6 10L6 11L7 11L7 12L2 12L2 13L7 13L7 12L8 12L8 10L9 10L9 12L10 12L10 14L11 14L11 11L12 11L12 10L13 10L13 9L12 9L12 8L13 8L13 6L12 6L12 5L13 5L13 4L12 4L12 3L9 3L9 1L10 1L10 2L11 2L11 1L12 1L12 2L13 2L13 0ZM9 6L9 7L10 7L10 6ZM11 6L11 7L12 7L12 6ZM10 8L10 9L9 9L9 10L10 10L10 9L11 9L11 8ZM15 8L15 9L16 9L16 8ZM17 8L17 9L19 9L19 10L14 10L14 11L13 11L13 12L12 12L12 15L11 15L11 16L10 16L10 15L8 15L8 17L9 17L9 19L8 19L8 21L11 21L11 20L10 20L10 18L11 18L11 19L12 19L12 18L13 18L13 17L12 17L12 16L13 16L13 15L14 15L14 14L16 14L16 15L15 15L15 16L14 16L14 17L15 17L15 18L14 18L14 19L13 19L13 20L12 20L12 21L16 21L16 20L15 20L15 19L19 19L19 18L21 18L21 15L20 15L20 14L21 14L21 11L20 11L20 10L21 10L21 8ZM0 11L0 13L1 13L1 11ZM15 11L15 13L17 13L17 16L16 16L16 17L17 17L17 18L18 18L18 17L17 17L17 16L19 16L19 17L20 17L20 16L19 16L19 13L20 13L20 12L19 12L19 11L17 11L17 12L16 12L16 11ZM17 12L17 13L19 13L19 12ZM8 13L8 14L9 14L9 13ZM9 16L9 17L10 17L10 16ZM17 20L17 21L19 21L19 20ZM20 20L20 21L21 21L21 20ZM0 0L0 7L7 7L7 0ZM1 1L1 6L6 6L6 1ZM2 2L2 5L5 5L5 2ZM14 0L14 7L21 7L21 0ZM15 1L15 6L20 6L20 1ZM16 2L16 5L19 5L19 2ZM0 14L0 21L7 21L7 14ZM1 15L1 20L6 20L6 15ZM2 16L2 19L5 19L5 16Z" fill="#315473"/></g></g></svg>
