<?xml version="1.0" encoding="UTF-8"?>
<svg xmlns="http://www.w3.org/2000/svg" version="1.1" width="300" height="300" viewBox="0 0 300 300"><rect x="0" y="0" width="300" height="300" fill="#3f0b33"/><g transform="scale(14.286)"><g transform="translate(0,0)"><path fill-rule="evenodd" d="M9 0L9 1L8 1L8 3L9 3L9 4L8 4L8 8L6 8L6 9L5 9L5 10L4 10L4 8L3 8L3 10L2 10L2 8L0 8L0 9L1 9L1 11L0 11L0 12L1 12L1 13L2 13L2 12L3 12L3 11L8 11L8 15L10 15L10 16L9 16L9 17L8 17L8 18L9 18L9 19L8 19L8 21L13 21L13 20L15 20L15 21L17 21L17 20L18 20L18 19L19 19L19 18L20 18L20 19L21 19L21 15L20 15L20 14L21 14L21 13L20 13L20 14L16 14L16 13L17 13L17 12L18 12L18 11L19 11L19 10L20 10L20 12L21 12L21 10L20 10L20 8L18 8L18 9L17 9L17 8L14 8L14 10L12 10L12 11L11 11L11 12L10 12L10 14L9 14L9 11L10 11L10 9L11 9L11 8L13 8L13 4L12 4L12 3L13 3L13 2L12 2L12 1L13 1L13 0L11 0L11 2L12 2L12 3L11 3L11 4L12 4L12 5L11 5L11 6L10 6L10 7L9 7L9 4L10 4L10 0ZM11 6L11 7L12 7L12 6ZM8 8L8 9L6 9L6 10L8 10L8 9L9 9L9 8ZM16 9L16 10L14 10L14 11L12 11L12 12L11 12L11 13L12 13L12 14L11 14L11 15L13 15L13 14L14 14L14 16L12 16L12 18L11 18L11 16L10 16L10 20L13 20L13 19L15 19L15 20L17 20L17 19L15 19L15 17L14 17L14 16L15 16L15 13L16 13L16 12L15 12L15 11L17 11L17 9ZM18 9L18 10L19 10L19 9ZM6 12L6 13L7 13L7 12ZM12 12L12 13L13 13L13 12ZM14 12L14 13L15 13L15 12ZM17 15L17 16L16 16L16 17L17 17L17 18L19 18L19 17L20 17L20 15ZM17 16L17 17L18 17L18 16ZM12 18L12 19L13 19L13 18ZM19 20L19 21L20 21L20 20ZM0 0L0 7L7 7L7 0ZM1 1L1 6L6 6L6 1ZM2 2L2 5L5 5L5 2ZM14 0L14 7L21 7L21 0ZM15 1L15 6L20 6L20 1ZM16 2L16 5L19 5L19 2ZM0 14L0 21L7 21L7 14ZM1 15L1 20L6 20L6 15ZM2 16L2 19L5 19L5 16Z" fill="#315473"/></g></g></svg>
