<?xml version="1.0" encoding="UTF-8"?>
<svg xmlns="http://www.w3.org/2000/svg" version="1.1" width="300" height="300" viewBox="0 0 300 300"><rect x="0" y="0" width="300" height="300" fill="#3f0b33"/><g transform="scale(14.286)"><g transform="translate(0,0)"><path fill-rule="evenodd" d="M9 0L9 1L8 1L8 3L9 3L9 4L8 4L8 8L6 8L6 9L7 9L7 10L2 10L2 11L1 11L1 9L2 9L2 8L0 8L0 13L2 13L2 11L4 11L4 12L5 12L5 13L8 13L8 15L10 15L10 16L9 16L9 17L8 17L8 18L9 18L9 19L8 19L8 21L10 21L10 19L11 19L11 18L12 18L12 19L13 19L13 20L11 20L11 21L13 21L13 20L15 20L15 19L16 19L16 20L18 20L18 17L19 17L19 18L20 18L20 19L21 19L21 15L20 15L20 14L21 14L21 13L20 13L20 14L19 14L19 12L18 12L18 11L15 11L15 12L14 12L14 13L15 13L15 12L16 12L16 13L17 13L17 12L18 12L18 15L20 15L20 17L19 17L19 16L18 16L18 17L17 17L17 18L15 18L15 19L13 19L13 18L12 18L12 16L14 16L14 17L16 17L16 16L17 16L17 14L15 14L15 16L14 16L14 14L13 14L13 15L11 15L11 14L12 14L12 13L13 13L13 12L12 12L12 11L14 11L14 10L16 10L16 9L17 9L17 10L18 10L18 9L19 9L19 10L20 10L20 12L21 12L21 10L20 10L20 8L18 8L18 9L17 9L17 8L14 8L14 10L12 10L12 11L11 11L11 10L9 10L9 9L11 9L11 8L13 8L13 4L12 4L12 3L13 3L13 2L12 2L12 1L13 1L13 0L11 0L11 2L12 2L12 3L11 3L11 4L12 4L12 5L11 5L11 6L10 6L10 7L9 7L9 4L10 4L10 0ZM11 6L11 7L12 7L12 6ZM3 8L3 9L4 9L4 8ZM8 8L8 9L9 9L9 8ZM7 10L7 11L5 11L5 12L8 12L8 13L9 13L9 12L10 12L10 14L11 14L11 13L12 13L12 12L11 12L11 11L9 11L9 12L8 12L8 10ZM10 17L10 18L11 18L11 17ZM19 20L19 21L20 21L20 20ZM0 0L0 7L7 7L7 0ZM1 1L1 6L6 6L6 1ZM2 2L2 5L5 5L5 2ZM14 0L14 7L21 7L21 0ZM15 1L15 6L20 6L20 1ZM16 2L16 5L19 5L19 2ZM0 14L0 21L7 21L7 14ZM1 15L1 20L6 20L6 15ZM2 16L2 19L5 19L5 16Z" fill="#315473"/></g></g></svg>
