<?xml version="1.0" encoding="UTF-8"?>
<svg xmlns="http://www.w3.org/2000/svg" version="1.1" width="300" height="300" viewBox="0 0 300 300"><rect x="0" y="0" width="300" height="300" fill="#3f0b33"/><g transform="scale(14.286)"><g transform="translate(0,0)"><path fill-rule="evenodd" d="M8 0L8 1L9 1L9 0ZM12 0L12 2L11 2L11 1L10 1L10 2L11 2L11 3L10 3L10 4L9 4L9 6L8 6L8 8L9 8L9 6L10 6L10 7L11 7L11 5L13 5L13 0ZM11 3L11 4L10 4L10 5L11 5L11 4L12 4L12 3ZM12 6L12 7L13 7L13 6ZM0 8L0 9L2 9L2 10L1 10L1 11L0 11L0 13L2 13L2 12L3 12L3 11L4 11L4 12L5 12L5 13L7 13L7 12L6 12L6 11L7 11L7 10L8 10L8 12L11 12L11 13L12 13L12 14L9 14L9 13L8 13L8 14L9 14L9 15L12 15L12 14L15 14L15 13L16 13L16 15L14 15L14 16L13 16L13 17L12 17L12 18L11 18L11 16L10 16L10 19L8 19L8 21L9 21L9 20L10 20L10 19L11 19L11 20L12 20L12 21L14 21L14 20L13 20L13 19L14 19L14 18L16 18L16 19L17 19L17 20L21 20L21 18L19 18L19 17L21 17L21 16L20 16L20 15L19 15L19 14L21 14L21 13L20 13L20 12L21 12L21 10L20 10L20 9L21 9L21 8L20 8L20 9L16 9L16 10L15 10L15 11L13 11L13 10L14 10L14 9L15 9L15 8L14 8L14 9L12 9L12 8L10 8L10 9L11 9L11 11L10 11L10 10L8 10L8 9L7 9L7 8L6 8L6 9L5 9L5 8L3 8L3 9L2 9L2 8ZM4 9L4 11L5 11L5 9ZM6 9L6 10L7 10L7 9ZM2 10L2 11L1 11L1 12L2 12L2 11L3 11L3 10ZM16 10L16 13L17 13L17 14L19 14L19 12L20 12L20 10L18 10L18 11L17 11L17 10ZM11 11L11 12L12 12L12 11ZM18 11L18 12L19 12L19 11ZM8 16L8 18L9 18L9 16ZM17 16L17 17L16 17L16 18L17 18L17 17L18 17L18 16ZM18 18L18 19L19 19L19 18ZM15 20L15 21L16 21L16 20ZM0 0L0 7L7 7L7 0ZM1 1L1 6L6 6L6 1ZM2 2L2 5L5 5L5 2ZM14 0L14 7L21 7L21 0ZM15 1L15 6L20 6L20 1ZM16 2L16 5L19 5L19 2ZM0 14L0 21L7 21L7 14ZM1 15L1 20L6 20L6 15ZM2 16L2 19L5 19L5 16Z" fill="#315473"/></g></g></svg>
