<?xml version="1.0" encoding="UTF-8"?>
<svg xmlns="http://www.w3.org/2000/svg" version="1.1" width="300" height="300" viewBox="0 0 300 300"><rect x="0" y="0" width="300" height="300" fill="#3f0b33"/><g transform="scale(14.286)"><g transform="translate(0,0)"><path fill-rule="evenodd" d="M9 0L9 1L8 1L8 3L9 3L9 4L8 4L8 8L6 8L6 9L8 9L8 10L9 10L9 9L10 9L10 10L11 10L11 8L13 8L13 4L12 4L12 3L13 3L13 2L12 2L12 1L13 1L13 0L11 0L11 2L12 2L12 3L11 3L11 4L12 4L12 5L11 5L11 6L10 6L10 7L9 7L9 4L10 4L10 0ZM11 6L11 7L12 7L12 6ZM0 8L0 11L1 11L1 12L2 12L2 13L3 13L3 11L4 11L4 10L5 10L5 11L7 11L7 10L5 10L5 9L4 9L4 8L3 8L3 9L2 9L2 8ZM8 8L8 9L9 9L9 8ZM14 8L14 10L12 10L12 11L10 11L10 12L9 12L9 11L8 11L8 12L4 12L4 13L8 13L8 15L9 15L9 16L10 16L10 17L11 17L11 18L12 18L12 19L13 19L13 20L10 20L10 18L9 18L9 17L8 17L8 18L9 18L9 19L8 19L8 21L13 21L13 20L15 20L15 21L20 21L20 20L16 20L16 19L18 19L18 18L17 18L17 17L19 17L19 18L20 18L20 19L21 19L21 15L20 15L20 14L21 14L21 13L20 13L20 14L18 14L18 13L19 13L19 12L18 12L18 11L19 11L19 9L20 9L20 11L21 11L21 9L20 9L20 8L18 8L18 9L17 9L17 8ZM1 9L1 11L2 11L2 9ZM3 9L3 10L4 10L4 9ZM16 9L16 10L14 10L14 11L12 11L12 12L11 12L11 13L12 13L12 14L11 14L11 15L13 15L13 14L14 14L14 16L12 16L12 18L13 18L13 19L15 19L15 18L16 18L16 17L17 17L17 16L19 16L19 17L20 17L20 15L16 15L16 16L15 16L15 13L16 13L16 14L17 14L17 12L15 12L15 11L18 11L18 10L17 10L17 9ZM8 12L8 13L9 13L9 15L10 15L10 13L9 13L9 12ZM12 12L12 13L13 13L13 12ZM14 12L14 13L15 13L15 12ZM14 16L14 17L15 17L15 16ZM0 0L0 7L7 7L7 0ZM1 1L1 6L6 6L6 1ZM2 2L2 5L5 5L5 2ZM14 0L14 7L21 7L21 0ZM15 1L15 6L20 6L20 1ZM16 2L16 5L19 5L19 2ZM0 14L0 21L7 21L7 14ZM1 15L1 20L6 20L6 15ZM2 16L2 19L5 19L5 16Z" fill="#315473"/></g></g></svg>
