<?xml version="1.0" encoding="UTF-8"?>
<svg xmlns="http://www.w3.org/2000/svg" version="1.1" width="300" height="300" viewBox="0 0 300 300"><rect x="0" y="0" width="300" height="300" fill="#3f0b33"/><g transform="scale(14.286)"><g transform="translate(0,0)"><path fill-rule="evenodd" d="M10 0L10 1L8 1L8 2L10 2L10 3L8 3L8 4L9 4L9 5L8 5L8 7L9 7L9 8L6 8L6 9L5 9L5 8L0 8L0 11L1 11L1 12L2 12L2 13L3 13L3 12L6 12L6 13L8 13L8 15L10 15L10 16L8 16L8 21L10 21L10 20L12 20L12 21L13 21L13 20L15 20L15 21L16 21L16 19L15 19L15 17L16 17L16 18L19 18L19 17L20 17L20 16L21 16L21 15L20 15L20 14L21 14L21 12L20 12L20 10L21 10L21 9L20 9L20 8L19 8L19 9L20 9L20 10L17 10L17 13L18 13L18 14L17 14L17 15L15 15L15 17L14 17L14 16L13 16L13 17L12 17L12 16L11 16L11 15L12 15L12 14L13 14L13 15L14 15L14 14L13 14L13 12L15 12L15 11L16 11L16 8L15 8L15 9L14 9L14 8L13 8L13 9L12 9L12 8L11 8L11 10L10 10L10 9L9 9L9 8L10 8L10 7L11 7L11 6L12 6L12 7L13 7L13 6L12 6L12 5L13 5L13 0ZM11 1L11 2L12 2L12 1ZM10 3L10 5L9 5L9 7L10 7L10 6L11 6L11 5L12 5L12 3ZM17 8L17 9L18 9L18 8ZM1 9L1 10L3 10L3 11L2 11L2 12L3 12L3 11L5 11L5 9ZM6 9L6 10L8 10L8 11L6 11L6 12L8 12L8 13L9 13L9 14L12 14L12 12L11 12L11 11L12 11L12 10L11 10L11 11L10 11L10 10L8 10L8 9ZM13 10L13 11L14 11L14 10ZM8 11L8 12L10 12L10 11ZM15 13L15 14L16 14L16 13ZM19 13L19 14L18 14L18 15L19 15L19 14L20 14L20 13ZM17 16L17 17L19 17L19 16ZM9 17L9 20L10 20L10 19L12 19L12 18L11 18L11 17ZM13 18L13 19L14 19L14 18ZM17 19L17 21L18 21L18 20L19 20L19 21L20 21L20 20L19 20L19 19ZM0 0L0 7L7 7L7 0ZM1 1L1 6L6 6L6 1ZM2 2L2 5L5 5L5 2ZM14 0L14 7L21 7L21 0ZM15 1L15 6L20 6L20 1ZM16 2L16 5L19 5L19 2ZM0 14L0 21L7 21L7 14ZM1 15L1 20L6 20L6 15ZM2 16L2 19L5 19L5 16Z" fill="#315473"/></g></g></svg>
