<?xml version="1.0" encoding="UTF-8"?>
<svg xmlns="http://www.w3.org/2000/svg" version="1.1" width="300" height="300" viewBox="0 0 300 300"><rect x="0" y="0" width="300" height="300" fill="#3f0b33"/><g transform="scale(14.286)"><g transform="translate(0,0)"><path fill-rule="evenodd" d="M9 0L9 1L8 1L8 3L9 3L9 4L8 4L8 8L6 8L6 9L8 9L8 8L9 8L9 9L10 9L10 10L9 10L9 12L8 12L8 15L9 15L9 14L10 14L10 16L9 16L9 17L8 17L8 18L9 18L9 19L8 19L8 21L13 21L13 20L15 20L15 19L16 19L16 20L17 20L17 21L18 21L18 20L17 20L17 18L18 18L18 17L17 17L17 18L15 18L15 19L13 19L13 18L12 18L12 16L14 16L14 17L16 17L16 15L20 15L20 17L19 17L19 18L20 18L20 19L21 19L21 15L20 15L20 14L17 14L17 13L18 13L18 12L17 12L17 13L16 13L16 14L15 14L15 16L14 16L14 14L13 14L13 15L11 15L11 14L12 14L12 13L13 13L13 12L12 12L12 11L14 11L14 10L16 10L16 9L17 9L17 11L19 11L19 10L18 10L18 9L20 9L20 8L18 8L18 9L17 9L17 8L14 8L14 10L12 10L12 11L11 11L11 8L13 8L13 4L12 4L12 3L13 3L13 2L12 2L12 1L13 1L13 0L11 0L11 2L12 2L12 3L11 3L11 4L12 4L12 5L11 5L11 6L10 6L10 7L9 7L9 4L10 4L10 0ZM11 6L11 7L12 7L12 6ZM0 8L0 9L2 9L2 10L0 10L0 13L1 13L1 12L2 12L2 13L5 13L5 9L4 9L4 8L3 8L3 9L2 9L2 8ZM3 10L3 11L2 11L2 12L4 12L4 10ZM6 10L6 11L7 11L7 10ZM20 10L20 12L19 12L19 13L20 13L20 12L21 12L21 10ZM10 11L10 12L11 12L11 13L12 13L12 12L11 12L11 11ZM15 11L15 12L14 12L14 13L15 13L15 12L16 12L16 11ZM6 12L6 13L7 13L7 12ZM9 17L9 18L11 18L11 19L9 19L9 20L13 20L13 19L12 19L12 18L11 18L11 17ZM19 20L19 21L20 21L20 20ZM0 0L0 7L7 7L7 0ZM1 1L1 6L6 6L6 1ZM2 2L2 5L5 5L5 2ZM14 0L14 7L21 7L21 0ZM15 1L15 6L20 6L20 1ZM16 2L16 5L19 5L19 2ZM0 14L0 21L7 21L7 14ZM1 15L1 20L6 20L6 15ZM2 16L2 19L5 19L5 16Z" fill="#315473"/></g></g></svg>
