<?xml version="1.0" encoding="UTF-8"?>
<svg xmlns="http://www.w3.org/2000/svg" version="1.1" width="300" height="300" viewBox="0 0 300 300"><rect x="0" y="0" width="300" height="300" fill="#3f0b33"/><g transform="scale(14.286)"><g transform="translate(0,0)"><path fill-rule="evenodd" d="M9 0L9 1L8 1L8 3L9 3L9 4L8 4L8 8L6 8L6 9L4 9L4 8L3 8L3 9L2 9L2 8L0 8L0 10L2 10L2 11L1 11L1 13L2 13L2 12L3 12L3 13L4 13L4 12L3 12L3 11L4 11L4 10L5 10L5 13L8 13L8 15L9 15L9 14L10 14L10 13L11 13L11 14L12 14L12 13L13 13L13 12L12 12L12 11L14 11L14 10L15 10L15 9L17 9L17 10L18 10L18 11L17 11L17 12L16 12L16 13L15 13L15 12L14 12L14 13L15 13L15 16L14 16L14 14L13 14L13 15L11 15L11 16L9 16L9 17L8 17L8 18L9 18L9 19L8 19L8 21L9 21L9 19L10 19L10 21L13 21L13 20L15 20L15 21L16 21L16 20L17 20L17 21L19 21L19 20L17 20L17 18L16 18L16 17L17 17L17 16L18 16L18 19L19 19L19 18L20 18L20 20L21 20L21 14L19 14L19 12L20 12L20 13L21 13L21 12L20 12L20 11L21 11L21 10L18 10L18 9L20 9L20 8L18 8L18 9L17 9L17 8L14 8L14 10L12 10L12 11L11 11L11 8L13 8L13 4L12 4L12 3L13 3L13 2L12 2L12 1L13 1L13 0L11 0L11 2L12 2L12 3L11 3L11 4L12 4L12 5L11 5L11 6L10 6L10 7L9 7L9 4L10 4L10 0ZM11 6L11 7L12 7L12 6ZM8 8L8 9L6 9L6 10L7 10L7 11L6 11L6 12L8 12L8 13L9 13L9 12L8 12L8 9L9 9L9 11L10 11L10 12L11 12L11 13L12 13L12 12L11 12L11 11L10 11L10 9L9 9L9 8ZM18 11L18 12L19 12L19 11ZM17 13L17 14L16 14L16 15L17 15L17 14L18 14L18 15L19 15L19 16L20 16L20 15L19 15L19 14L18 14L18 13ZM12 16L12 18L10 18L10 17L9 17L9 18L10 18L10 19L11 19L11 20L13 20L13 19L16 19L16 18L15 18L15 17L14 17L14 16ZM12 18L12 19L13 19L13 18ZM0 0L0 7L7 7L7 0ZM1 1L1 6L6 6L6 1ZM2 2L2 5L5 5L5 2ZM14 0L14 7L21 7L21 0ZM15 1L15 6L20 6L20 1ZM16 2L16 5L19 5L19 2ZM0 14L0 21L7 21L7 14ZM1 15L1 20L6 20L6 15ZM2 16L2 19L5 19L5 16Z" fill="#315473"/></g></g></svg>
