<?xml version="1.0" encoding="UTF-8"?>
<svg xmlns="http://www.w3.org/2000/svg" version="1.1" width="300" height="300" viewBox="0 0 300 300"><rect x="0" y="0" width="300" height="300" fill="#3f0b33"/><g transform="scale(14.286)"><g transform="translate(0,0)"><path fill-rule="evenodd" d="M10 0L10 1L8 1L8 2L10 2L10 3L8 3L8 4L9 4L9 5L8 5L8 7L9 7L9 8L6 8L6 9L5 9L5 8L0 8L0 9L5 9L5 11L4 11L4 10L1 10L1 11L0 11L0 13L1 13L1 12L2 12L2 13L3 13L3 12L2 12L2 11L4 11L4 13L8 13L8 15L10 15L10 16L8 16L8 21L10 21L10 18L12 18L12 19L11 19L11 20L12 20L12 21L13 21L13 20L15 20L15 18L16 18L16 17L14 17L14 16L13 16L13 17L12 17L12 16L11 16L11 15L12 15L12 14L13 14L13 15L14 15L14 14L13 14L13 12L16 12L16 8L15 8L15 9L14 9L14 8L13 8L13 9L12 9L12 8L11 8L11 9L10 9L10 12L8 12L8 10L6 10L6 9L9 9L9 8L10 8L10 7L11 7L11 6L12 6L12 7L13 7L13 6L12 6L12 5L13 5L13 0ZM11 1L11 2L12 2L12 1ZM10 3L10 5L9 5L9 7L10 7L10 6L11 6L11 5L12 5L12 3ZM17 8L17 9L18 9L18 10L17 10L17 13L16 13L16 14L15 14L15 16L16 16L16 14L17 14L17 13L18 13L18 12L19 12L19 14L18 14L18 15L17 15L17 17L18 17L18 16L19 16L19 17L20 17L20 16L21 16L21 15L20 15L20 14L21 14L21 13L20 13L20 12L19 12L19 11L20 11L20 10L21 10L21 9L20 9L20 8L19 8L19 9L18 9L18 8ZM19 9L19 10L18 10L18 11L19 11L19 10L20 10L20 9ZM11 10L11 11L12 11L12 10ZM13 10L13 11L14 11L14 10ZM5 11L5 12L7 12L7 11ZM10 12L10 15L11 15L11 14L12 14L12 12ZM10 16L10 17L9 17L9 18L10 18L10 17L11 17L11 16ZM13 18L13 19L14 19L14 18ZM17 18L17 19L16 19L16 20L19 20L19 21L20 21L20 20L19 20L19 18ZM0 0L0 7L7 7L7 0ZM1 1L1 6L6 6L6 1ZM2 2L2 5L5 5L5 2ZM14 0L14 7L21 7L21 0ZM15 1L15 6L20 6L20 1ZM16 2L16 5L19 5L19 2ZM0 14L0 21L7 21L7 14ZM1 15L1 20L6 20L6 15ZM2 16L2 19L5 19L5 16Z" fill="#315473"/></g></g></svg>
