<?xml version="1.0" encoding="UTF-8"?>
<svg xmlns="http://www.w3.org/2000/svg" version="1.1" width="300" height="300" viewBox="0 0 300 300"><rect x="0" y="0" width="300" height="300" fill="#3f0b33"/><g transform="scale(14.286)"><g transform="translate(0,0)"><path fill-rule="evenodd" d="M8 0L8 1L9 1L9 0ZM10 0L10 2L8 2L8 5L9 5L9 6L8 6L8 7L9 7L9 6L10 6L10 7L11 7L11 8L8 8L8 9L7 9L7 8L6 8L6 9L4 9L4 8L0 8L0 9L2 9L2 10L3 10L3 9L4 9L4 11L2 11L2 12L1 12L1 11L0 11L0 12L1 12L1 13L2 13L2 12L4 12L4 11L5 11L5 13L8 13L8 14L9 14L9 16L10 16L10 18L12 18L12 19L13 19L13 21L14 21L14 19L15 19L15 18L16 18L16 17L17 17L17 18L18 18L18 19L19 19L19 18L20 18L20 17L21 17L21 15L19 15L19 14L20 14L20 13L21 13L21 12L20 12L20 13L19 13L19 14L18 14L18 12L17 12L17 11L21 11L21 8L20 8L20 10L19 10L19 8L16 8L16 9L14 9L14 8L13 8L13 5L12 5L12 4L13 4L13 3L12 3L12 1L13 1L13 0ZM10 2L10 4L9 4L9 5L11 5L11 4L12 4L12 3L11 3L11 2ZM11 6L11 7L12 7L12 6ZM6 9L6 10L7 10L7 11L6 11L6 12L7 12L7 11L9 11L9 12L11 12L11 13L12 13L12 14L13 14L13 15L10 15L10 16L11 16L11 17L12 17L12 18L13 18L13 19L14 19L14 17L12 17L12 16L15 16L15 17L16 17L16 16L17 16L17 15L15 15L15 14L14 14L14 13L15 13L15 12L16 12L16 11L17 11L17 10L18 10L18 9L16 9L16 10L12 10L12 12L11 12L11 11L9 11L9 10L7 10L7 9ZM14 11L14 12L15 12L15 11ZM12 12L12 13L13 13L13 12ZM9 13L9 14L10 14L10 13ZM8 17L8 21L9 21L9 17ZM10 19L10 21L11 21L11 19ZM16 19L16 20L15 20L15 21L17 21L17 19ZM20 19L20 20L21 20L21 19ZM0 0L0 7L7 7L7 0ZM1 1L1 6L6 6L6 1ZM2 2L2 5L5 5L5 2ZM14 0L14 7L21 7L21 0ZM15 1L15 6L20 6L20 1ZM16 2L16 5L19 5L19 2ZM0 14L0 21L7 21L7 14ZM1 15L1 20L6 20L6 15ZM2 16L2 19L5 19L5 16Z" fill="#315473"/></g></g></svg>
